<svg xmlns="http://www.w3.org/2000/svg" width="576" height="576" viewBox="0 0 576 576"><svg x="0" y="0" width="96" height="96" viewBox="0 0 96 96"><defs><filter id="s0" x="-50%" y="-50%" width="200%" height="200%"><feDropShadow dx="0" dy="4" stdDeviation="3" flood-color="#000" flood-opacity="0.65"/><feDropShadow dx="0" dy="0" stdDeviation="2" flood-color="#fde68a" flood-opacity="0.65"/></filter></defs><g><path d="M48 8 L84 28 L84 68 L48 88 L12 68 L12 28 Z" fill="#7c2d12" opacity=".35" stroke="#fde68a" stroke-width="2"/><path filter="url(#s0)" stroke="#12070a" stroke-width="5" stroke-linejoin="round" stroke-linecap="round" d="M27 18 C33 40 63 40 69 18" fill="none"/><path filter="url(#s0)" stroke="#12070a" stroke-width="5" stroke-linejoin="round" stroke-linecap="round" d="M48 42 L64 60 L48 82 L32 60 Z" fill="#fde68a"/><circle cx="48" cy="60" r="8" fill="#fef3c7"/></g></svg>
<svg x="96" y="0" width="96" height="96" viewBox="0 0 96 96"><defs><filter id="s1" x="-50%" y="-50%" width="200%" height="200%"><feDropShadow dx="0" dy="4" stdDeviation="3" flood-color="#000" flood-opacity="0.65"/><feDropShadow dx="0" dy="0" stdDeviation="2" flood-color="#fde68a" flood-opacity="0.65"/></filter></defs><g><path d="M48 8 L84 28 L84 68 L48 88 L12 68 L12 28 Z" fill="#7c2d12" opacity=".35" stroke="#fde68a" stroke-width="2"/><path filter="url(#s1)" stroke="#12070a" stroke-width="5" stroke-linejoin="round" stroke-linecap="round" d="M22 48 C22 25 34 15 48 15 C64 15 75 27 75 48 V71 H21 Z" fill="#fde68a"/><path filter="url(#s1)" stroke="#12070a" stroke-width="5" stroke-linejoin="round" stroke-linecap="round" d="M30 48 H66 M38 70 V52 M58 70 V52" stroke="#fef3c7" stroke-width="4"/></g></svg>
<svg x="192" y="0" width="96" height="96" viewBox="0 0 96 96"><defs><filter id="s2" x="-50%" y="-50%" width="200%" height="200%"><feDropShadow dx="0" dy="4" stdDeviation="3" flood-color="#000" flood-opacity="0.65"/><feDropShadow dx="0" dy="0" stdDeviation="2" flood-color="#fde68a" flood-opacity="0.65"/></filter></defs><g><path d="M48 8 L84 28 L84 68 L48 88 L12 68 L12 28 Z" fill="#7c2d12" opacity=".35" stroke="#fde68a" stroke-width="2"/><path filter="url(#s2)" stroke="#12070a" stroke-width="5" stroke-linejoin="round" stroke-linecap="round" d="M28 18 L42 30 H54 L68 18 L80 34 L70 82 H26 L16 34 Z" fill="#fde68a"/><path filter="url(#s2)" stroke="#12070a" stroke-width="5" stroke-linejoin="round" stroke-linecap="round" d="M42 31 L36 82 M54 31 L60 82 M30 50 H66" stroke="#fef3c7" stroke-width="4"/></g></svg>
<svg x="288" y="0" width="96" height="96" viewBox="0 0 96 96"><defs><filter id="s3" x="-50%" y="-50%" width="200%" height="200%"><feDropShadow dx="0" dy="4" stdDeviation="3" flood-color="#000" flood-opacity="0.65"/><feDropShadow dx="0" dy="0" stdDeviation="2" flood-color="#fde68a" flood-opacity="0.65"/></filter></defs><g><path d="M48 8 L84 28 L84 68 L48 88 L12 68 L12 28 Z" fill="#7c2d12" opacity=".35" stroke="#fde68a" stroke-width="2"/><path filter="url(#s3)" stroke="#12070a" stroke-width="5" stroke-linejoin="round" stroke-linecap="round" d="M27 18 C33 40 63 40 69 18" fill="none"/><path filter="url(#s3)" stroke="#12070a" stroke-width="5" stroke-linejoin="round" stroke-linecap="round" d="M48 42 L64 60 L48 82 L32 60 Z" fill="#fde68a"/><circle cx="48" cy="60" r="8" fill="#fef3c7"/></g></svg>
<svg x="384" y="0" width="96" height="96" viewBox="0 0 96 96"><defs><filter id="s4" x="-50%" y="-50%" width="200%" height="200%"><feDropShadow dx="0" dy="4" stdDeviation="3" flood-color="#000" flood-opacity="0.65"/><feDropShadow dx="0" dy="0" stdDeviation="2" flood-color="#fde68a" flood-opacity="0.65"/></filter></defs><g><path d="M48 8 L84 28 L84 68 L48 88 L12 68 L12 28 Z" fill="#7c2d12" opacity=".35" stroke="#fde68a" stroke-width="2"/><circle filter="url(#s4)" stroke="#12070a" stroke-width="5" stroke-linejoin="round" stroke-linecap="round" cx="48" cy="53" r="25" fill="none"/><circle filter="url(#s4)" stroke="#12070a" stroke-width="5" stroke-linejoin="round" stroke-linecap="round" cx="48" cy="28" r="11" fill="#fde68a"/><circle cx="48" cy="53" r="13" fill="none" stroke="#fef3c7" stroke-width="4"/></g></svg>
<svg x="480" y="0" width="96" height="96" viewBox="0 0 96 96"><defs><filter id="s5" x="-50%" y="-50%" width="200%" height="200%"><feDropShadow dx="0" dy="4" stdDeviation="3" flood-color="#000" flood-opacity="0.65"/><feDropShadow dx="0" dy="0" stdDeviation="2" flood-color="#fde68a" flood-opacity="0.65"/></filter></defs><g><path d="M48 8 L84 28 L84 68 L48 88 L12 68 L12 28 Z" fill="#7c2d12" opacity=".35" stroke="#fde68a" stroke-width="2"/><path filter="url(#s5)" stroke="#12070a" stroke-width="5" stroke-linejoin="round" stroke-linecap="round" d="M28 24 H48 V58 L62 62 C72 65 75 72 69 78 H25 C21 62 23 42 28 24 Z" fill="#fde68a"/><path filter="url(#s5)" stroke="#12070a" stroke-width="5" stroke-linejoin="round" stroke-linecap="round" d="M51 25 H66 V58 L78 63 C86 67 86 76 77 79 H47 C54 62 54 42 51 25 Z" fill="#7c2d12"/><path filter="url(#s5)" stroke="#12070a" stroke-width="5" stroke-linejoin="round" stroke-linecap="round" d="M28 58 H70" stroke="#fef3c7"/></g></svg>
<svg x="0" y="96" width="96" height="96" viewBox="0 0 96 96"><defs><filter id="s6" x="-50%" y="-50%" width="200%" height="200%"><feDropShadow dx="0" dy="4" stdDeviation="3" flood-color="#000" flood-opacity="0.65"/><feDropShadow dx="0" dy="0" stdDeviation="2" flood-color="#fde68a" flood-opacity="0.65"/></filter></defs><g><path d="M48 8 L84 28 L84 68 L48 88 L12 68 L12 28 Z" fill="#7c2d12" opacity=".35" stroke="#fde68a" stroke-width="2"/><path filter="url(#s6)" stroke="#12070a" stroke-width="5" stroke-linejoin="round" stroke-linecap="round" d="M22 48 C22 25 34 15 48 15 C64 15 75 27 75 48 V71 H21 Z" fill="#fde68a"/><path filter="url(#s6)" stroke="#12070a" stroke-width="5" stroke-linejoin="round" stroke-linecap="round" d="M30 48 H66 M38 70 V52 M58 70 V52" stroke="#fef3c7" stroke-width="4"/></g></svg>
<svg x="96" y="96" width="96" height="96" viewBox="0 0 96 96"><defs><filter id="s7" x="-50%" y="-50%" width="200%" height="200%"><feDropShadow dx="0" dy="4" stdDeviation="3" flood-color="#000" flood-opacity="0.65"/><feDropShadow dx="0" dy="0" stdDeviation="2" flood-color="#fde68a" flood-opacity="0.65"/></filter></defs><g><path d="M48 8 L84 28 L84 68 L48 88 L12 68 L12 28 Z" fill="#7c2d12" opacity=".35" stroke="#fde68a" stroke-width="2"/><path filter="url(#s7)" stroke="#12070a" stroke-width="5" stroke-linejoin="round" stroke-linecap="round" d="M22 48 C22 25 34 15 48 15 C64 15 75 27 75 48 V71 H21 Z" fill="#fde68a"/><path filter="url(#s7)" stroke="#12070a" stroke-width="5" stroke-linejoin="round" stroke-linecap="round" d="M30 48 H66 M38 70 V52 M58 70 V52" stroke="#fef3c7" stroke-width="4"/></g></svg>
<svg x="192" y="96" width="96" height="96" viewBox="0 0 96 96"><defs><filter id="s8" x="-50%" y="-50%" width="200%" height="200%"><feDropShadow dx="0" dy="4" stdDeviation="3" flood-color="#000" flood-opacity="0.65"/><feDropShadow dx="0" dy="0" stdDeviation="2" flood-color="#fde68a" flood-opacity="0.65"/></filter></defs><g><path d="M48 8 L84 28 L84 68 L48 88 L12 68 L12 28 Z" fill="#7c2d12" opacity=".35" stroke="#fde68a" stroke-width="2"/><path filter="url(#s8)" stroke="#12070a" stroke-width="5" stroke-linejoin="round" stroke-linecap="round" d="M22 48 C22 25 34 15 48 15 C64 15 75 27 75 48 V71 H21 Z" fill="#fde68a"/><path filter="url(#s8)" stroke="#12070a" stroke-width="5" stroke-linejoin="round" stroke-linecap="round" d="M30 48 H66 M38 70 V52 M58 70 V52" stroke="#fef3c7" stroke-width="4"/></g></svg>
<svg x="288" y="96" width="96" height="96" viewBox="0 0 96 96"><defs><filter id="s9" x="-50%" y="-50%" width="200%" height="200%"><feDropShadow dx="0" dy="4" stdDeviation="3" flood-color="#000" flood-opacity="0.65"/><feDropShadow dx="0" dy="0" stdDeviation="2" flood-color="#fde68a" flood-opacity="0.65"/></filter></defs><g><path d="M48 8 L84 28 L84 68 L48 88 L12 68 L12 28 Z" fill="#7c2d12" opacity=".35" stroke="#fde68a" stroke-width="2"/><path filter="url(#s9)" stroke="#12070a" stroke-width="5" stroke-linejoin="round" stroke-linecap="round" d="M22 48 C22 25 34 15 48 15 C64 15 75 27 75 48 V71 H21 Z" fill="#fde68a"/><path filter="url(#s9)" stroke="#12070a" stroke-width="5" stroke-linejoin="round" stroke-linecap="round" d="M30 48 H66 M38 70 V52 M58 70 V52" stroke="#fef3c7" stroke-width="4"/></g></svg>
<svg x="384" y="96" width="96" height="96" viewBox="0 0 96 96"><defs><filter id="s10" x="-50%" y="-50%" width="200%" height="200%"><feDropShadow dx="0" dy="4" stdDeviation="3" flood-color="#000" flood-opacity="0.65"/><feDropShadow dx="0" dy="0" stdDeviation="2" flood-color="#fde68a" flood-opacity="0.65"/></filter></defs><g><path d="M48 8 L84 28 L84 68 L48 88 L12 68 L12 28 Z" fill="#7c2d12" opacity=".35" stroke="#fde68a" stroke-width="2"/><path filter="url(#s10)" stroke="#12070a" stroke-width="5" stroke-linejoin="round" stroke-linecap="round" d="M22 48 C22 25 34 15 48 15 C64 15 75 27 75 48 V71 H21 Z" fill="#fde68a"/><path filter="url(#s10)" stroke="#12070a" stroke-width="5" stroke-linejoin="round" stroke-linecap="round" d="M30 48 H66 M38 70 V52 M58 70 V52" stroke="#fef3c7" stroke-width="4"/></g></svg>
<svg x="480" y="96" width="96" height="96" viewBox="0 0 96 96"><defs><filter id="s11" x="-50%" y="-50%" width="200%" height="200%"><feDropShadow dx="0" dy="4" stdDeviation="3" flood-color="#000" flood-opacity="0.65"/><feDropShadow dx="0" dy="0" stdDeviation="2" flood-color="#fde68a" flood-opacity="0.65"/></filter></defs><g><path d="M48 8 L84 28 L84 68 L48 88 L12 68 L12 28 Z" fill="#7c2d12" opacity=".35" stroke="#fde68a" stroke-width="2"/><path filter="url(#s11)" stroke="#12070a" stroke-width="5" stroke-linejoin="round" stroke-linecap="round" d="M22 48 C22 25 34 15 48 15 C64 15 75 27 75 48 V71 H21 Z" fill="#fde68a"/><path filter="url(#s11)" stroke="#12070a" stroke-width="5" stroke-linejoin="round" stroke-linecap="round" d="M30 48 H66 M38 70 V52 M58 70 V52" stroke="#fef3c7" stroke-width="4"/></g></svg>
<svg x="0" y="192" width="96" height="96" viewBox="0 0 96 96"><defs><filter id="s12" x="-50%" y="-50%" width="200%" height="200%"><feDropShadow dx="0" dy="4" stdDeviation="3" flood-color="#000" flood-opacity="0.65"/><feDropShadow dx="0" dy="0" stdDeviation="2" flood-color="#fde68a" flood-opacity="0.65"/></filter></defs><g><path d="M48 8 L84 28 L84 68 L48 88 L12 68 L12 28 Z" fill="#7c2d12" opacity=".35" stroke="#fde68a" stroke-width="2"/><path filter="url(#s12)" stroke="#12070a" stroke-width="5" stroke-linejoin="round" stroke-linecap="round" d="M27 18 C33 40 63 40 69 18" fill="none"/><path filter="url(#s12)" stroke="#12070a" stroke-width="5" stroke-linejoin="round" stroke-linecap="round" d="M48 42 L64 60 L48 82 L32 60 Z" fill="#fde68a"/><circle cx="48" cy="60" r="8" fill="#fef3c7"/></g></svg>
<svg x="96" y="192" width="96" height="96" viewBox="0 0 96 96"><defs><filter id="s13" x="-50%" y="-50%" width="200%" height="200%"><feDropShadow dx="0" dy="4" stdDeviation="3" flood-color="#000" flood-opacity="0.65"/><feDropShadow dx="0" dy="0" stdDeviation="2" flood-color="#fde68a" flood-opacity="0.65"/></filter></defs><g><path d="M48 8 L84 28 L84 68 L48 88 L12 68 L12 28 Z" fill="#7c2d12" opacity=".35" stroke="#fde68a" stroke-width="2"/><path filter="url(#s13)" stroke="#12070a" stroke-width="5" stroke-linejoin="round" stroke-linecap="round" d="M22 48 C22 25 34 15 48 15 C64 15 75 27 75 48 V71 H21 Z" fill="#fde68a"/><path filter="url(#s13)" stroke="#12070a" stroke-width="5" stroke-linejoin="round" stroke-linecap="round" d="M30 48 H66 M38 70 V52 M58 70 V52" stroke="#fef3c7" stroke-width="4"/></g></svg>
<svg x="192" y="192" width="96" height="96" viewBox="0 0 96 96"><defs><filter id="s14" x="-50%" y="-50%" width="200%" height="200%"><feDropShadow dx="0" dy="4" stdDeviation="3" flood-color="#000" flood-opacity="0.65"/><feDropShadow dx="0" dy="0" stdDeviation="2" flood-color="#fde68a" flood-opacity="0.65"/></filter></defs><g><path d="M48 8 L84 28 L84 68 L48 88 L12 68 L12 28 Z" fill="#7c2d12" opacity=".35" stroke="#fde68a" stroke-width="2"/><path filter="url(#s14)" stroke="#12070a" stroke-width="5" stroke-linejoin="round" stroke-linecap="round" d="M28 18 L42 30 H54 L68 18 L80 34 L70 82 H26 L16 34 Z" fill="#fde68a"/><path filter="url(#s14)" stroke="#12070a" stroke-width="5" stroke-linejoin="round" stroke-linecap="round" d="M42 31 L36 82 M54 31 L60 82 M30 50 H66" stroke="#fef3c7" stroke-width="4"/></g></svg>
<svg x="288" y="192" width="96" height="96" viewBox="0 0 96 96"><defs><filter id="s15" x="-50%" y="-50%" width="200%" height="200%"><feDropShadow dx="0" dy="4" stdDeviation="3" flood-color="#000" flood-opacity="0.65"/><feDropShadow dx="0" dy="0" stdDeviation="2" flood-color="#fde68a" flood-opacity="0.65"/></filter></defs><g><path d="M48 8 L84 28 L84 68 L48 88 L12 68 L12 28 Z" fill="#7c2d12" opacity=".35" stroke="#fde68a" stroke-width="2"/><path filter="url(#s15)" stroke="#12070a" stroke-width="5" stroke-linejoin="round" stroke-linecap="round" d="M27 18 C33 40 63 40 69 18" fill="none"/><path filter="url(#s15)" stroke="#12070a" stroke-width="5" stroke-linejoin="round" stroke-linecap="round" d="M48 42 L64 60 L48 82 L32 60 Z" fill="#fde68a"/><circle cx="48" cy="60" r="8" fill="#fef3c7"/></g></svg>
<svg x="384" y="192" width="96" height="96" viewBox="0 0 96 96"><defs><filter id="s16" x="-50%" y="-50%" width="200%" height="200%"><feDropShadow dx="0" dy="4" stdDeviation="3" flood-color="#000" flood-opacity="0.65"/><feDropShadow dx="0" dy="0" stdDeviation="2" flood-color="#fde68a" flood-opacity="0.65"/></filter></defs><g><path d="M48 8 L84 28 L84 68 L48 88 L12 68 L12 28 Z" fill="#7c2d12" opacity=".35" stroke="#fde68a" stroke-width="2"/><circle filter="url(#s16)" stroke="#12070a" stroke-width="5" stroke-linejoin="round" stroke-linecap="round" cx="48" cy="53" r="25" fill="none"/><circle filter="url(#s16)" stroke="#12070a" stroke-width="5" stroke-linejoin="round" stroke-linecap="round" cx="48" cy="28" r="11" fill="#fde68a"/><circle cx="48" cy="53" r="13" fill="none" stroke="#fef3c7" stroke-width="4"/></g></svg>
<svg x="480" y="192" width="96" height="96" viewBox="0 0 96 96"><defs><filter id="s17" x="-50%" y="-50%" width="200%" height="200%"><feDropShadow dx="0" dy="4" stdDeviation="3" flood-color="#000" flood-opacity="0.65"/><feDropShadow dx="0" dy="0" stdDeviation="2" flood-color="#fde68a" flood-opacity="0.65"/></filter></defs><g><path d="M48 8 L84 28 L84 68 L48 88 L12 68 L12 28 Z" fill="#7c2d12" opacity=".35" stroke="#fde68a" stroke-width="2"/><path filter="url(#s17)" stroke="#12070a" stroke-width="5" stroke-linejoin="round" stroke-linecap="round" d="M28 24 H48 V58 L62 62 C72 65 75 72 69 78 H25 C21 62 23 42 28 24 Z" fill="#fde68a"/><path filter="url(#s17)" stroke="#12070a" stroke-width="5" stroke-linejoin="round" stroke-linecap="round" d="M51 25 H66 V58 L78 63 C86 67 86 76 77 79 H47 C54 62 54 42 51 25 Z" fill="#7c2d12"/><path filter="url(#s17)" stroke="#12070a" stroke-width="5" stroke-linejoin="round" stroke-linecap="round" d="M28 58 H70" stroke="#fef3c7"/></g></svg></svg>