<svg xmlns="http://www.w3.org/2000/svg" width="576" height="576" viewBox="0 0 576 576"><svg x="0" y="0" width="96" height="96" viewBox="0 0 96 96"><defs><filter id="s0" x="-50%" y="-50%" width="200%" height="200%"><feDropShadow dx="0" dy="4" stdDeviation="3" flood-color="#000" flood-opacity="0.65"/><feDropShadow dx="0" dy="0" stdDeviation="2" flood-color="#fde68a" flood-opacity="0.65"/></filter></defs><g><circle cx="48" cy="48" r="37" fill="#3b250d" stroke="#facc15" stroke-width="2" opacity=".5"/><path filter="url(#s0)" stroke="#12070a" stroke-width="5" stroke-linejoin="round" stroke-linecap="round" d="M27 18 C33 40 63 40 69 18" fill="none"/><path filter="url(#s0)" stroke="#12070a" stroke-width="5" stroke-linejoin="round" stroke-linecap="round" d="M48 42 L64 60 L48 82 L32 60 Z" fill="#fde68a"/><circle cx="48" cy="60" r="8" fill="#fff7ad"/></g></svg>
<svg x="96" y="0" width="96" height="96" viewBox="0 0 96 96"><defs><filter id="s1" x="-50%" y="-50%" width="200%" height="200%"><feDropShadow dx="0" dy="4" stdDeviation="3" flood-color="#000" flood-opacity="0.65"/><feDropShadow dx="0" dy="0" stdDeviation="2" flood-color="#fde68a" flood-opacity="0.65"/></filter></defs><g><circle cx="48" cy="48" r="37" fill="#3b250d" stroke="#facc15" stroke-width="2" opacity=".5"/><path filter="url(#s1)" stroke="#12070a" stroke-width="5" stroke-linejoin="round" stroke-linecap="round" d="M32 80 L64 18"/><circle filter="url(#s1)" stroke="#12070a" stroke-width="5" stroke-linejoin="round" stroke-linecap="round" cx="66" cy="18" r="14" fill="#fde68a"/><path filter="url(#s1)" stroke="#12070a" stroke-width="5" stroke-linejoin="round" stroke-linecap="round" d="M56 30 L75 37" stroke="#7c2d12"/></g></svg>
<svg x="192" y="0" width="96" height="96" viewBox="0 0 96 96"><defs><filter id="s2" x="-50%" y="-50%" width="200%" height="200%"><feDropShadow dx="0" dy="4" stdDeviation="3" flood-color="#000" flood-opacity="0.65"/><feDropShadow dx="0" dy="0" stdDeviation="2" flood-color="#fde68a" flood-opacity="0.65"/></filter></defs><g><circle cx="48" cy="48" r="37" fill="#3b250d" stroke="#facc15" stroke-width="2" opacity=".5"/><path filter="url(#s2)" stroke="#12070a" stroke-width="5" stroke-linejoin="round" stroke-linecap="round" d="M66 14 C28 28 28 68 66 82" fill="none"/><path filter="url(#s2)" stroke="#12070a" stroke-width="5" stroke-linejoin="round" stroke-linecap="round" d="M66 14 L66 82" stroke="#fff7ad" stroke-width="3"/><path filter="url(#s2)" stroke="#12070a" stroke-width="5" stroke-linejoin="round" stroke-linecap="round" d="M28 48 L78 48" stroke="#fde68a"/></g></svg>
<svg x="288" y="0" width="96" height="96" viewBox="0 0 96 96"><defs><filter id="s3" x="-50%" y="-50%" width="200%" height="200%"><feDropShadow dx="0" dy="4" stdDeviation="3" flood-color="#000" flood-opacity="0.65"/><feDropShadow dx="0" dy="0" stdDeviation="2" flood-color="#bfdbfe" flood-opacity="0.65"/></filter></defs><g><circle cx="48" cy="48" r="37" fill="#3b250d" stroke="#facc15" stroke-width="2" opacity=".5"/><path filter="url(#s3)" stroke="#12070a" stroke-width="5" stroke-linejoin="round" stroke-linecap="round" d="M30 78 L62 30"/><circle filter="url(#s3)" stroke="#12070a" stroke-width="5" stroke-linejoin="round" stroke-linecap="round" cx="66" cy="25" r="17" fill="#bfdbfe"/><path filter="url(#s3)" stroke="#12070a" stroke-width="5" stroke-linejoin="round" stroke-linecap="round" d="M54 25 H78 M66 13 V37" stroke="#fff7ad"/></g></svg>
<svg x="384" y="0" width="96" height="96" viewBox="0 0 96 96"><defs><filter id="s4" x="-50%" y="-50%" width="200%" height="200%"><feDropShadow dx="0" dy="4" stdDeviation="3" flood-color="#000" flood-opacity="0.65"/><feDropShadow dx="0" dy="0" stdDeviation="2" flood-color="#f97316" flood-opacity="0.65"/></filter></defs><g><circle cx="48" cy="48" r="37" fill="#3b250d" stroke="#facc15" stroke-width="2" opacity=".5"/><path filter="url(#s4)" stroke="#12070a" stroke-width="5" stroke-linejoin="round" stroke-linecap="round" d="M33 82 L62 22"/><path filter="url(#s4)" stroke="#12070a" stroke-width="5" stroke-linejoin="round" stroke-linecap="round" d="M58 18 C82 20 82 45 58 48 C65 36 65 28 58 18Z" fill="#f97316"/><path filter="url(#s4)" stroke="#12070a" stroke-width="5" stroke-linejoin="round" stroke-linecap="round" d="M55 20 C35 25 34 45 56 49" fill="#991b1b"/></g></svg>
<svg x="480" y="0" width="96" height="96" viewBox="0 0 96 96"><defs><filter id="s5" x="-50%" y="-50%" width="200%" height="200%"><feDropShadow dx="0" dy="4" stdDeviation="3" flood-color="#000" flood-opacity="0.65"/><feDropShadow dx="0" dy="0" stdDeviation="2" flood-color="#c4b5fd" flood-opacity="0.65"/></filter></defs><g><circle cx="48" cy="48" r="37" fill="#3b250d" stroke="#facc15" stroke-width="2" opacity=".5"/><path filter="url(#s5)" stroke="#12070a" stroke-width="5" stroke-linejoin="round" stroke-linecap="round" d="M25 76 L68 25 L78 18 L72 32 L32 82 Z" fill="#c4b5fd"/><path filter="url(#s5)" stroke="#12070a" stroke-width="5" stroke-linejoin="round" stroke-linecap="round" d="M20 80 L36 64"/><path filter="url(#s5)" stroke="#12070a" stroke-width="5" stroke-linejoin="round" stroke-linecap="round" d="M36 69 L27 60" stroke="#fff7ad"/></g></svg>
<svg x="0" y="96" width="96" height="96" viewBox="0 0 96 96"><defs><filter id="s6" x="-50%" y="-50%" width="200%" height="200%"><feDropShadow dx="0" dy="4" stdDeviation="3" flood-color="#000" flood-opacity="0.65"/><feDropShadow dx="0" dy="0" stdDeviation="2" flood-color="#fde68a" flood-opacity="0.65"/></filter></defs><g><circle cx="48" cy="48" r="37" fill="#3b250d" stroke="#facc15" stroke-width="2" opacity=".5"/><path filter="url(#s6)" stroke="#12070a" stroke-width="5" stroke-linejoin="round" stroke-linecap="round" d="M18 66 L24 28 L40 48 L48 20 L58 48 L74 28 L80 66 Z" fill="#fde68a"/><path filter="url(#s6)" stroke="#12070a" stroke-width="5" stroke-linejoin="round" stroke-linecap="round" d="M22 67 H78" stroke="#fff7ad"/></g></svg>
<svg x="96" y="96" width="96" height="96" viewBox="0 0 96 96"><defs><filter id="s7" x="-50%" y="-50%" width="200%" height="200%"><feDropShadow dx="0" dy="4" stdDeviation="3" flood-color="#000" flood-opacity="0.65"/><feDropShadow dx="0" dy="0" stdDeviation="2" flood-color="#fb923c" flood-opacity="0.65"/></filter></defs><g><circle cx="48" cy="48" r="37" fill="#3b250d" stroke="#facc15" stroke-width="2" opacity=".5"/><path filter="url(#s7)" stroke="#12070a" stroke-width="5" stroke-linejoin="round" stroke-linecap="round" d="M22 48 C22 25 34 15 48 15 C64 15 75 27 75 48 V71 H21 Z" fill="#fb923c"/><path filter="url(#s7)" stroke="#12070a" stroke-width="5" stroke-linejoin="round" stroke-linecap="round" d="M30 48 H66 M38 70 V52 M58 70 V52" stroke="#fff7ad" stroke-width="4"/></g></svg>
<svg x="192" y="96" width="96" height="96" viewBox="0 0 96 96"><defs><filter id="s8" x="-50%" y="-50%" width="200%" height="200%"><feDropShadow dx="0" dy="4" stdDeviation="3" flood-color="#000" flood-opacity="0.65"/><feDropShadow dx="0" dy="0" stdDeviation="2" flood-color="#bae6fd" flood-opacity="0.65"/></filter></defs><g><circle cx="48" cy="48" r="37" fill="#3b250d" stroke="#facc15" stroke-width="2" opacity=".5"/><path filter="url(#s8)" stroke="#12070a" stroke-width="5" stroke-linejoin="round" stroke-linecap="round" d="M22 48 C22 25 34 15 48 15 C64 15 75 27 75 48 V71 H21 Z" fill="#bae6fd"/><path filter="url(#s8)" stroke="#12070a" stroke-width="5" stroke-linejoin="round" stroke-linecap="round" d="M30 48 H66 M38 70 V52 M58 70 V52" stroke="#fff7ad" stroke-width="4"/></g></svg>
<svg x="288" y="96" width="96" height="96" viewBox="0 0 96 96"><defs><filter id="s9" x="-50%" y="-50%" width="200%" height="200%"><feDropShadow dx="0" dy="4" stdDeviation="3" flood-color="#000" flood-opacity="0.65"/><feDropShadow dx="0" dy="0" stdDeviation="2" flood-color="#cbd5e1" flood-opacity="0.65"/></filter></defs><g><circle cx="48" cy="48" r="37" fill="#3b250d" stroke="#facc15" stroke-width="2" opacity=".5"/><path filter="url(#s9)" stroke="#12070a" stroke-width="5" stroke-linejoin="round" stroke-linecap="round" d="M22 48 C22 25 34 15 48 15 C64 15 75 27 75 48 V71 H21 Z" fill="#cbd5e1"/><path filter="url(#s9)" stroke="#12070a" stroke-width="5" stroke-linejoin="round" stroke-linecap="round" d="M30 48 H66 M38 70 V52 M58 70 V52" stroke="#fff7ad" stroke-width="4"/></g></svg>
<svg x="384" y="96" width="96" height="96" viewBox="0 0 96 96"><defs><filter id="s10" x="-50%" y="-50%" width="200%" height="200%"><feDropShadow dx="0" dy="4" stdDeviation="3" flood-color="#000" flood-opacity="0.65"/><feDropShadow dx="0" dy="0" stdDeviation="2" flood-color="#a78bfa" flood-opacity="0.65"/></filter></defs><g><circle cx="48" cy="48" r="37" fill="#3b250d" stroke="#facc15" stroke-width="2" opacity=".5"/><path filter="url(#s10)" stroke="#12070a" stroke-width="5" stroke-linejoin="round" stroke-linecap="round" d="M24 25 C40 14 60 14 76 25 L70 72 C55 84 39 84 26 72 Z" fill="#a78bfa"/><path filter="url(#s10)" stroke="#12070a" stroke-width="5" stroke-linejoin="round" stroke-linecap="round" d="M34 45 L46 43 M62 45 L50 43 M40 66 C46 70 54 70 60 66" stroke="#fff7ad"/></g></svg>
<svg x="480" y="96" width="96" height="96" viewBox="0 0 96 96"><defs><filter id="s11" x="-50%" y="-50%" width="200%" height="200%"><feDropShadow dx="0" dy="4" stdDeviation="3" flood-color="#000" flood-opacity="0.65"/><feDropShadow dx="0" dy="0" stdDeviation="2" flood-color="#f9a8d4" flood-opacity="0.65"/></filter></defs><g><circle cx="48" cy="48" r="37" fill="#3b250d" stroke="#facc15" stroke-width="2" opacity=".5"/><path filter="url(#s11)" stroke="#12070a" stroke-width="5" stroke-linejoin="round" stroke-linecap="round" d="M22 48 C22 25 34 15 48 15 C64 15 75 27 75 48 V71 H21 Z" fill="#f9a8d4"/><path filter="url(#s11)" stroke="#12070a" stroke-width="5" stroke-linejoin="round" stroke-linecap="round" d="M30 48 H66 M38 70 V52 M58 70 V52" stroke="#fff7ad" stroke-width="4"/></g></svg>
<svg x="0" y="192" width="96" height="96" viewBox="0 0 96 96"><defs><filter id="s12" x="-50%" y="-50%" width="200%" height="200%"><feDropShadow dx="0" dy="4" stdDeviation="3" flood-color="#000" flood-opacity="0.65"/><feDropShadow dx="0" dy="0" stdDeviation="2" flood-color="#fde68a" flood-opacity="0.65"/></filter></defs><g><circle cx="48" cy="48" r="37" fill="#3b250d" stroke="#facc15" stroke-width="2" opacity=".5"/><path filter="url(#s12)" stroke="#12070a" stroke-width="5" stroke-linejoin="round" stroke-linecap="round" d="M28 18 L42 30 H54 L68 18 L80 34 L70 82 H26 L16 34 Z" fill="#fde68a"/><path filter="url(#s12)" stroke="#12070a" stroke-width="5" stroke-linejoin="round" stroke-linecap="round" d="M42 31 L36 82 M54 31 L60 82 M30 50 H66" stroke="#fff7ad" stroke-width="4"/></g></svg>
<svg x="96" y="192" width="96" height="96" viewBox="0 0 96 96"><defs><filter id="s13" x="-50%" y="-50%" width="200%" height="200%"><feDropShadow dx="0" dy="4" stdDeviation="3" flood-color="#000" flood-opacity="0.65"/><feDropShadow dx="0" dy="0" stdDeviation="2" flood-color="#fdba74" flood-opacity="0.65"/></filter></defs><g><circle cx="48" cy="48" r="37" fill="#3b250d" stroke="#facc15" stroke-width="2" opacity=".5"/><path filter="url(#s13)" stroke="#12070a" stroke-width="5" stroke-linejoin="round" stroke-linecap="round" d="M28 18 L42 30 H54 L68 18 L80 34 L70 82 H26 L16 34 Z" fill="#fdba74"/><path filter="url(#s13)" stroke="#12070a" stroke-width="5" stroke-linejoin="round" stroke-linecap="round" d="M42 31 L36 82 M54 31 L60 82 M30 50 H66" stroke="#fff7ad" stroke-width="4"/></g></svg>
<svg x="192" y="192" width="96" height="96" viewBox="0 0 96 96"><defs><filter id="s14" x="-50%" y="-50%" width="200%" height="200%"><feDropShadow dx="0" dy="4" stdDeviation="3" flood-color="#000" flood-opacity="0.65"/><feDropShadow dx="0" dy="0" stdDeviation="2" flood-color="#bbf7d0" flood-opacity="0.65"/></filter></defs><g><circle cx="48" cy="48" r="37" fill="#3b250d" stroke="#facc15" stroke-width="2" opacity=".5"/><path filter="url(#s14)" stroke="#12070a" stroke-width="5" stroke-linejoin="round" stroke-linecap="round" d="M28 18 L42 30 H54 L68 18 L80 34 L70 82 H26 L16 34 Z" fill="#bbf7d0"/><path filter="url(#s14)" stroke="#12070a" stroke-width="5" stroke-linejoin="round" stroke-linecap="round" d="M42 31 L36 82 M54 31 L60 82 M30 50 H66" stroke="#fff7ad" stroke-width="4"/></g></svg>
<svg x="288" y="192" width="96" height="96" viewBox="0 0 96 96"><defs><filter id="s15" x="-50%" y="-50%" width="200%" height="200%"><feDropShadow dx="0" dy="4" stdDeviation="3" flood-color="#000" flood-opacity="0.65"/><feDropShadow dx="0" dy="0" stdDeviation="2" flood-color="#fde68a" flood-opacity="0.65"/></filter></defs><g><circle cx="48" cy="48" r="37" fill="#3b250d" stroke="#facc15" stroke-width="2" opacity=".5"/><path filter="url(#s15)" stroke="#12070a" stroke-width="5" stroke-linejoin="round" stroke-linecap="round" d="M28 18 L42 30 H54 L68 18 L80 34 L70 82 H26 L16 34 Z" fill="#fde68a"/><path filter="url(#s15)" stroke="#12070a" stroke-width="5" stroke-linejoin="round" stroke-linecap="round" d="M42 31 L36 82 M54 31 L60 82 M30 50 H66" stroke="#fff7ad" stroke-width="4"/></g></svg>
<svg x="384" y="192" width="96" height="96" viewBox="0 0 96 96"><defs><filter id="s16" x="-50%" y="-50%" width="200%" height="200%"><feDropShadow dx="0" dy="4" stdDeviation="3" flood-color="#000" flood-opacity="0.65"/><feDropShadow dx="0" dy="0" stdDeviation="2" flood-color="#fde68a" flood-opacity="0.65"/></filter></defs><g><circle cx="48" cy="48" r="37" fill="#3b250d" stroke="#facc15" stroke-width="2" opacity=".5"/><path filter="url(#s16)" stroke="#12070a" stroke-width="5" stroke-linejoin="round" stroke-linecap="round" d="M28 18 L42 30 H54 L68 18 L80 34 L70 82 H26 L16 34 Z" fill="#fde68a"/><path filter="url(#s16)" stroke="#12070a" stroke-width="5" stroke-linejoin="round" stroke-linecap="round" d="M42 31 L36 82 M54 31 L60 82 M30 50 H66" stroke="#fff7ad" stroke-width="4"/></g></svg>
<svg x="480" y="192" width="96" height="96" viewBox="0 0 96 96"><defs><filter id="s17" x="-50%" y="-50%" width="200%" height="200%"><feDropShadow dx="0" dy="4" stdDeviation="3" flood-color="#000" flood-opacity="0.65"/><feDropShadow dx="0" dy="0" stdDeviation="2" flood-color="#fde68a" flood-opacity="0.65"/></filter></defs><g><circle cx="48" cy="48" r="37" fill="#3b250d" stroke="#facc15" stroke-width="2" opacity=".5"/><path filter="url(#s17)" stroke="#12070a" stroke-width="5" stroke-linejoin="round" stroke-linecap="round" d="M28 18 L42 30 H54 L68 18 L80 34 L70 82 H26 L16 34 Z" fill="#fde68a"/><path filter="url(#s17)" stroke="#12070a" stroke-width="5" stroke-linejoin="round" stroke-linecap="round" d="M42 31 L36 82 M54 31 L60 82 M30 50 H66" stroke="#fff7ad" stroke-width="4"/></g></svg>
<svg x="0" y="288" width="96" height="96" viewBox="0 0 96 96"><defs><filter id="s18" x="-50%" y="-50%" width="200%" height="200%"><feDropShadow dx="0" dy="4" stdDeviation="3" flood-color="#000" flood-opacity="0.65"/><feDropShadow dx="0" dy="0" stdDeviation="2" flood-color="#fff7ad" flood-opacity="0.65"/></filter></defs><g><circle cx="48" cy="48" r="37" fill="#3b250d" stroke="#facc15" stroke-width="2" opacity=".5"/><path filter="url(#s18)" stroke="#12070a" stroke-width="5" stroke-linejoin="round" stroke-linecap="round" d="M27 18 C33 40 63 40 69 18" fill="none"/><path filter="url(#s18)" stroke="#12070a" stroke-width="5" stroke-linejoin="round" stroke-linecap="round" d="M48 42 L64 60 L48 82 L32 60 Z" fill="#fff7ad"/><circle cx="48" cy="60" r="8" fill="#fff7ad"/></g></svg>
<svg x="96" y="288" width="96" height="96" viewBox="0 0 96 96"><defs><filter id="s19" x="-50%" y="-50%" width="200%" height="200%"><feDropShadow dx="0" dy="4" stdDeviation="3" flood-color="#000" flood-opacity="0.65"/><feDropShadow dx="0" dy="0" stdDeviation="2" flood-color="#c084fc" flood-opacity="0.65"/></filter></defs><g><circle cx="48" cy="48" r="37" fill="#3b250d" stroke="#facc15" stroke-width="2" opacity=".5"/><path filter="url(#s19)" stroke="#12070a" stroke-width="5" stroke-linejoin="round" stroke-linecap="round" d="M48 79 C22 58 16 45 22 32 C28 18 43 22 48 34 C54 22 70 18 76 32 C82 45 74 59 48 79 Z" fill="#c084fc"/><path filter="url(#s19)" stroke="#12070a" stroke-width="5" stroke-linejoin="round" stroke-linecap="round" d="M32 52 H44 L50 39 L58 64 L64 52 H76" stroke="#fff7ad"/></g></svg>
<svg x="192" y="288" width="96" height="96" viewBox="0 0 96 96"><defs><filter id="s20" x="-50%" y="-50%" width="200%" height="200%"><feDropShadow dx="0" dy="4" stdDeviation="3" flood-color="#000" flood-opacity="0.65"/><feDropShadow dx="0" dy="0" stdDeviation="2" flood-color="#f97316" flood-opacity="0.65"/></filter></defs><g><circle cx="48" cy="48" r="37" fill="#3b250d" stroke="#facc15" stroke-width="2" opacity=".5"/><path filter="url(#s20)" stroke="#12070a" stroke-width="5" stroke-linejoin="round" stroke-linecap="round" d="M48 79 C22 58 16 45 22 32 C28 18 43 22 48 34 C54 22 70 18 76 32 C82 45 74 59 48 79 Z" fill="#f97316"/><path filter="url(#s20)" stroke="#12070a" stroke-width="5" stroke-linejoin="round" stroke-linecap="round" d="M32 52 H44 L50 39 L58 64 L64 52 H76" stroke="#fff7ad"/></g></svg>
<svg x="288" y="288" width="96" height="96" viewBox="0 0 96 96"><defs><filter id="s21" x="-50%" y="-50%" width="200%" height="200%"><feDropShadow dx="0" dy="4" stdDeviation="3" flood-color="#000" flood-opacity="0.65"/><feDropShadow dx="0" dy="0" stdDeviation="2" flood-color="#e0f2fe" flood-opacity="0.65"/></filter></defs><g><circle cx="48" cy="48" r="37" fill="#3b250d" stroke="#facc15" stroke-width="2" opacity=".5"/><path filter="url(#s21)" stroke="#12070a" stroke-width="5" stroke-linejoin="round" stroke-linecap="round" d="M27 18 C33 40 63 40 69 18" fill="none"/><path filter="url(#s21)" stroke="#12070a" stroke-width="5" stroke-linejoin="round" stroke-linecap="round" d="M48 42 L64 60 L48 82 L32 60 Z" fill="#e0f2fe"/><circle cx="48" cy="60" r="8" fill="#fff7ad"/></g></svg>
<svg x="384" y="288" width="96" height="96" viewBox="0 0 96 96"><defs><filter id="s22" x="-50%" y="-50%" width="200%" height="200%"><feDropShadow dx="0" dy="4" stdDeviation="3" flood-color="#000" flood-opacity="0.65"/><feDropShadow dx="0" dy="0" stdDeviation="2" flood-color="#e7d6aa" flood-opacity="0.65"/></filter></defs><g><circle cx="48" cy="48" r="37" fill="#3b250d" stroke="#facc15" stroke-width="2" opacity=".5"/><path filter="url(#s22)" stroke="#12070a" stroke-width="5" stroke-linejoin="round" stroke-linecap="round" d="M27 18 C33 40 63 40 69 18" fill="none"/><path filter="url(#s22)" stroke="#12070a" stroke-width="5" stroke-linejoin="round" stroke-linecap="round" d="M48 42 L64 60 L48 82 L32 60 Z" fill="#e7d6aa"/><circle cx="48" cy="60" r="8" fill="#fff7ad"/></g></svg>
<svg x="480" y="288" width="96" height="96" viewBox="0 0 96 96"><defs><filter id="s23" x="-50%" y="-50%" width="200%" height="200%"><feDropShadow dx="0" dy="4" stdDeviation="3" flood-color="#000" flood-opacity="0.65"/><feDropShadow dx="0" dy="0" stdDeviation="2" flood-color="#f9a8d4" flood-opacity="0.65"/></filter></defs><g><circle cx="48" cy="48" r="37" fill="#3b250d" stroke="#facc15" stroke-width="2" opacity=".5"/><path filter="url(#s23)" stroke="#12070a" stroke-width="5" stroke-linejoin="round" stroke-linecap="round" d="M48 79 C22 58 16 45 22 32 C28 18 43 22 48 34 C54 22 70 18 76 32 C82 45 74 59 48 79 Z" fill="#f9a8d4"/><path filter="url(#s23)" stroke="#12070a" stroke-width="5" stroke-linejoin="round" stroke-linecap="round" d="M32 52 H44 L50 39 L58 64 L64 52 H76" stroke="#fff7ad"/></g></svg>
<svg x="0" y="384" width="96" height="96" viewBox="0 0 96 96"><defs><filter id="s24" x="-50%" y="-50%" width="200%" height="200%"><feDropShadow dx="0" dy="4" stdDeviation="3" flood-color="#000" flood-opacity="0.65"/><feDropShadow dx="0" dy="0" stdDeviation="2" flood-color="#fde68a" flood-opacity="0.65"/></filter></defs><g><circle cx="48" cy="48" r="37" fill="#3b250d" stroke="#facc15" stroke-width="2" opacity=".5"/><circle filter="url(#s24)" stroke="#12070a" stroke-width="5" stroke-linejoin="round" stroke-linecap="round" cx="48" cy="53" r="25" fill="none"/><circle filter="url(#s24)" stroke="#12070a" stroke-width="5" stroke-linejoin="round" stroke-linecap="round" cx="48" cy="28" r="11" fill="#fde68a"/><circle cx="48" cy="53" r="13" fill="none" stroke="#fff7ad" stroke-width="4"/></g></svg>
<svg x="96" y="384" width="96" height="96" viewBox="0 0 96 96"><defs><filter id="s25" x="-50%" y="-50%" width="200%" height="200%"><feDropShadow dx="0" dy="4" stdDeviation="3" flood-color="#000" flood-opacity="0.65"/><feDropShadow dx="0" dy="0" stdDeviation="2" flood-color="#fde68a" flood-opacity="0.65"/></filter></defs><g><circle cx="48" cy="48" r="37" fill="#3b250d" stroke="#facc15" stroke-width="2" opacity=".5"/><circle filter="url(#s25)" stroke="#12070a" stroke-width="5" stroke-linejoin="round" stroke-linecap="round" cx="48" cy="53" r="25" fill="none"/><circle filter="url(#s25)" stroke="#12070a" stroke-width="5" stroke-linejoin="round" stroke-linecap="round" cx="48" cy="28" r="11" fill="#fde68a"/><circle cx="48" cy="53" r="13" fill="none" stroke="#fff7ad" stroke-width="4"/></g></svg>
<svg x="192" y="384" width="96" height="96" viewBox="0 0 96 96"><defs><filter id="s26" x="-50%" y="-50%" width="200%" height="200%"><feDropShadow dx="0" dy="4" stdDeviation="3" flood-color="#000" flood-opacity="0.65"/><feDropShadow dx="0" dy="0" stdDeviation="2" flood-color="#fde68a" flood-opacity="0.65"/></filter></defs><g><circle cx="48" cy="48" r="37" fill="#3b250d" stroke="#facc15" stroke-width="2" opacity=".5"/><circle filter="url(#s26)" stroke="#12070a" stroke-width="5" stroke-linejoin="round" stroke-linecap="round" cx="48" cy="53" r="25" fill="none"/><circle filter="url(#s26)" stroke="#12070a" stroke-width="5" stroke-linejoin="round" stroke-linecap="round" cx="48" cy="28" r="11" fill="#fde68a"/><circle cx="48" cy="53" r="13" fill="none" stroke="#fff7ad" stroke-width="4"/></g></svg>
<svg x="288" y="384" width="96" height="96" viewBox="0 0 96 96"><defs><filter id="s27" x="-50%" y="-50%" width="200%" height="200%"><feDropShadow dx="0" dy="4" stdDeviation="3" flood-color="#000" flood-opacity="0.65"/><feDropShadow dx="0" dy="0" stdDeviation="2" flood-color="#c4b5fd" flood-opacity="0.65"/></filter></defs><g><circle cx="48" cy="48" r="37" fill="#3b250d" stroke="#facc15" stroke-width="2" opacity=".5"/><circle filter="url(#s27)" stroke="#12070a" stroke-width="5" stroke-linejoin="round" stroke-linecap="round" cx="48" cy="53" r="25" fill="none"/><circle filter="url(#s27)" stroke="#12070a" stroke-width="5" stroke-linejoin="round" stroke-linecap="round" cx="48" cy="28" r="11" fill="#c4b5fd"/><circle cx="48" cy="53" r="13" fill="none" stroke="#fff7ad" stroke-width="4"/></g></svg>
<svg x="384" y="384" width="96" height="96" viewBox="0 0 96 96"><defs><filter id="s28" x="-50%" y="-50%" width="200%" height="200%"><feDropShadow dx="0" dy="4" stdDeviation="3" flood-color="#000" flood-opacity="0.65"/><feDropShadow dx="0" dy="0" stdDeviation="2" flood-color="#facc15" flood-opacity="0.65"/></filter></defs><g><circle cx="48" cy="48" r="37" fill="#3b250d" stroke="#facc15" stroke-width="2" opacity=".5"/><circle filter="url(#s28)" stroke="#12070a" stroke-width="5" stroke-linejoin="round" stroke-linecap="round" cx="48" cy="53" r="25" fill="none"/><circle filter="url(#s28)" stroke="#12070a" stroke-width="5" stroke-linejoin="round" stroke-linecap="round" cx="48" cy="28" r="11" fill="#facc15"/><circle cx="48" cy="53" r="13" fill="none" stroke="#fff7ad" stroke-width="4"/></g></svg>
<svg x="480" y="384" width="96" height="96" viewBox="0 0 96 96"><defs><filter id="s29" x="-50%" y="-50%" width="200%" height="200%"><feDropShadow dx="0" dy="4" stdDeviation="3" flood-color="#000" flood-opacity="0.65"/><feDropShadow dx="0" dy="0" stdDeviation="2" flood-color="#f9a8d4" flood-opacity="0.65"/></filter></defs><g><circle cx="48" cy="48" r="37" fill="#3b250d" stroke="#facc15" stroke-width="2" opacity=".5"/><circle filter="url(#s29)" stroke="#12070a" stroke-width="5" stroke-linejoin="round" stroke-linecap="round" cx="48" cy="53" r="25" fill="none"/><circle filter="url(#s29)" stroke="#12070a" stroke-width="5" stroke-linejoin="round" stroke-linecap="round" cx="48" cy="28" r="11" fill="#f9a8d4"/><circle cx="48" cy="53" r="13" fill="none" stroke="#fff7ad" stroke-width="4"/></g></svg>
<svg x="0" y="480" width="96" height="96" viewBox="0 0 96 96"><defs><filter id="s30" x="-50%" y="-50%" width="200%" height="200%"><feDropShadow dx="0" dy="4" stdDeviation="3" flood-color="#000" flood-opacity="0.65"/><feDropShadow dx="0" dy="0" stdDeviation="2" flood-color="#fde68a" flood-opacity="0.65"/></filter></defs><g><circle cx="48" cy="48" r="37" fill="#3b250d" stroke="#facc15" stroke-width="2" opacity=".5"/><path filter="url(#s30)" stroke="#12070a" stroke-width="5" stroke-linejoin="round" stroke-linecap="round" d="M28 24 H48 V58 L62 62 C72 65 75 72 69 78 H25 C21 62 23 42 28 24 Z" fill="#fde68a"/><path filter="url(#s30)" stroke="#12070a" stroke-width="5" stroke-linejoin="round" stroke-linecap="round" d="M51 25 H66 V58 L78 63 C86 67 86 76 77 79 H47 C54 62 54 42 51 25 Z" fill="#f59e0b"/><path filter="url(#s30)" stroke="#12070a" stroke-width="5" stroke-linejoin="round" stroke-linecap="round" d="M28 58 H70" stroke="#fff7ad"/></g></svg>
<svg x="96" y="480" width="96" height="96" viewBox="0 0 96 96"><defs><filter id="s31" x="-50%" y="-50%" width="200%" height="200%"><feDropShadow dx="0" dy="4" stdDeviation="3" flood-color="#000" flood-opacity="0.65"/><feDropShadow dx="0" dy="0" stdDeviation="2" flood-color="#bbf7d0" flood-opacity="0.65"/></filter></defs><g><circle cx="48" cy="48" r="37" fill="#3b250d" stroke="#facc15" stroke-width="2" opacity=".5"/><path filter="url(#s31)" stroke="#12070a" stroke-width="5" stroke-linejoin="round" stroke-linecap="round" d="M28 24 H48 V58 L62 62 C72 65 75 72 69 78 H25 C21 62 23 42 28 24 Z" fill="#bbf7d0"/><path filter="url(#s31)" stroke="#12070a" stroke-width="5" stroke-linejoin="round" stroke-linecap="round" d="M51 25 H66 V58 L78 63 C86 67 86 76 77 79 H47 C54 62 54 42 51 25 Z" fill="#0f766e"/><path filter="url(#s31)" stroke="#12070a" stroke-width="5" stroke-linejoin="round" stroke-linecap="round" d="M28 58 H70" stroke="#fff7ad"/></g></svg>
<svg x="192" y="480" width="96" height="96" viewBox="0 0 96 96"><defs><filter id="s32" x="-50%" y="-50%" width="200%" height="200%"><feDropShadow dx="0" dy="4" stdDeviation="3" flood-color="#000" flood-opacity="0.65"/><feDropShadow dx="0" dy="0" stdDeviation="2" flood-color="#bae6fd" flood-opacity="0.65"/></filter></defs><g><circle cx="48" cy="48" r="37" fill="#3b250d" stroke="#facc15" stroke-width="2" opacity=".5"/><path filter="url(#s32)" stroke="#12070a" stroke-width="5" stroke-linejoin="round" stroke-linecap="round" d="M28 24 H48 V58 L62 62 C72 65 75 72 69 78 H25 C21 62 23 42 28 24 Z" fill="#bae6fd"/><path filter="url(#s32)" stroke="#12070a" stroke-width="5" stroke-linejoin="round" stroke-linecap="round" d="M51 25 H66 V58 L78 63 C86 67 86 76 77 79 H47 C54 62 54 42 51 25 Z" fill="#2563eb"/><path filter="url(#s32)" stroke="#12070a" stroke-width="5" stroke-linejoin="round" stroke-linecap="round" d="M28 58 H70" stroke="#fff7ad"/></g></svg>
<svg x="288" y="480" width="96" height="96" viewBox="0 0 96 96"><defs><filter id="s33" x="-50%" y="-50%" width="200%" height="200%"><feDropShadow dx="0" dy="4" stdDeviation="3" flood-color="#000" flood-opacity="0.65"/><feDropShadow dx="0" dy="0" stdDeviation="2" flood-color="#a78bfa" flood-opacity="0.65"/></filter></defs><g><circle cx="48" cy="48" r="37" fill="#3b250d" stroke="#facc15" stroke-width="2" opacity=".5"/><path filter="url(#s33)" stroke="#12070a" stroke-width="5" stroke-linejoin="round" stroke-linecap="round" d="M28 24 H48 V58 L62 62 C72 65 75 72 69 78 H25 C21 62 23 42 28 24 Z" fill="#a78bfa"/><path filter="url(#s33)" stroke="#12070a" stroke-width="5" stroke-linejoin="round" stroke-linecap="round" d="M51 25 H66 V58 L78 63 C86 67 86 76 77 79 H47 C54 62 54 42 51 25 Z" fill="#111827"/><path filter="url(#s33)" stroke="#12070a" stroke-width="5" stroke-linejoin="round" stroke-linecap="round" d="M28 58 H70" stroke="#fff7ad"/></g></svg>
<svg x="384" y="480" width="96" height="96" viewBox="0 0 96 96"><defs><filter id="s34" x="-50%" y="-50%" width="200%" height="200%"><feDropShadow dx="0" dy="4" stdDeviation="3" flood-color="#000" flood-opacity="0.65"/><feDropShadow dx="0" dy="0" stdDeviation="2" flood-color="#cbd5e1" flood-opacity="0.65"/></filter></defs><g><circle cx="48" cy="48" r="37" fill="#3b250d" stroke="#facc15" stroke-width="2" opacity=".5"/><path filter="url(#s34)" stroke="#12070a" stroke-width="5" stroke-linejoin="round" stroke-linecap="round" d="M28 24 H48 V58 L62 62 C72 65 75 72 69 78 H25 C21 62 23 42 28 24 Z" fill="#cbd5e1"/><path filter="url(#s34)" stroke="#12070a" stroke-width="5" stroke-linejoin="round" stroke-linecap="round" d="M51 25 H66 V58 L78 63 C86 67 86 76 77 79 H47 C54 62 54 42 51 25 Z" fill="#475569"/><path filter="url(#s34)" stroke="#12070a" stroke-width="5" stroke-linejoin="round" stroke-linecap="round" d="M28 58 H70" stroke="#fff7ad"/></g></svg>
<svg x="480" y="480" width="96" height="96" viewBox="0 0 96 96"><defs><filter id="s35" x="-50%" y="-50%" width="200%" height="200%"><feDropShadow dx="0" dy="4" stdDeviation="3" flood-color="#000" flood-opacity="0.65"/><feDropShadow dx="0" dy="0" stdDeviation="2" flood-color="#f9a8d4" flood-opacity="0.65"/></filter></defs><g><circle cx="48" cy="48" r="37" fill="#3b250d" stroke="#facc15" stroke-width="2" opacity=".5"/><path filter="url(#s35)" stroke="#12070a" stroke-width="5" stroke-linejoin="round" stroke-linecap="round" d="M28 24 H48 V58 L62 62 C72 65 75 72 69 78 H25 C21 62 23 42 28 24 Z" fill="#f9a8d4"/><path filter="url(#s35)" stroke="#12070a" stroke-width="5" stroke-linejoin="round" stroke-linecap="round" d="M51 25 H66 V58 L78 63 C86 67 86 76 77 79 H47 C54 62 54 42 51 25 Z" fill="#be185d"/><path filter="url(#s35)" stroke="#12070a" stroke-width="5" stroke-linejoin="round" stroke-linecap="round" d="M28 58 H70" stroke="#fff7ad"/></g></svg></svg>